<svg xmlns="http://www.w3.org/2000/svg" viewBox="0 0 24 24">
<title>iocn_play</title>
<style>
    g { display: none; }
    g:target { display: inline-block; }
</style>
<g id="white">
    <path d="M0 0h24v24H0V0z" fill="none"/>
    <path d="M12 2C6.48 2 2 6.48 2 12s4.48 10 10 10 10-4.48 10-10S17.52 2 12 2zm-2 14.5v-9l6 4.5-6 4.5z" fill="#fff"/>
</g>
<g id="black">
    <path d="M0 0h24v24H0V0z" fill="none"/>
    <path d="M12 2C6.48 2 2 6.48 2 12s4.48 10 10 10 10-4.48 10-10S17.52 2 12 2zm-2 14.5v-9l6 4.5-6 4.5z" fill="#000"/>
</g>
<g id="gradient">
    <defs>
        <linearGradient id="grad1" x1="0%" y1="0%" x2="0%" y2="100%">
        <stop offset="0%" style="stop-color:rgb(89,116,210);stop-opacity:1"></stop>
        <stop offset="100%" style="stop-color:rgb(7,194,156);stop-opacity:1"></stop>
        </linearGradient>
    </defs>
    <path d="M0 0h24v24H0V0z" fill="none"/>
    <path d="M12 2C6.48 2 2 6.48 2 12s4.48 10 10 10 10-4.48 10-10S17.52 2 12 2zm-2 14.5v-9l6 4.5-6 4.5z" fill="url(#grad1)"/>
</g>
</svg>